<svg xmlns="http://www.w3.org/2000/svg" width="800" height="800" viewBox="0 0 32 32"><path d="M.844 6.05c-.256-.256-.381-.581-.381-.975s.125-.719.381-.975.581-.381.975-.381h28.512c.394 0 .719.125.975.381s.381.581.381.975-.125.719-.381.975-.581.381-.975.381H1.819c-.394 0-.719-.125-.975-.381zm30.462 8.913c.256.256.381.581.381.975s-.125.719-.381.975-.581.381-.975.381H1.819c-.394 0-.719-.125-.975-.381s-.381-.581-.381-.975.125-.719.381-.975.581-.381.975-.381h28.512c.394 0 .719.125.975.381zm0 10.856c.256.256.381.581.381.975s-.125.719-.381.975-.581.381-.975.381H1.819c-.394 0-.719-.125-.975-.381s-.381-.581-.381-.975.125-.719.381-.975.581-.381.975-.381h28.512c.394 0 .719.131.975.381z"/></svg>