<svg xmlns="http://www.w3.org/2000/svg" xmlns:xlink="http://www.w3.org/1999/xlink" xml:space="preserve" width="800" height="800" viewBox="0 0 512 512"><g><path fill="#000" d="M490.237 90.753a74.151 74.151 0 0 0-52.532-21.756H74.295C33.258 69.012.015 102.247 0 143.284v225.432c.015 41.036 33.258 74.272 74.295 74.286h363.41a74.154 74.154 0 0 0 52.532-21.755A74.192 74.192 0 0 0 512 368.716V143.284a74.194 74.194 0 0 0-21.763-52.531zM74.295 107.04h363.41c8.701.008 16.466 3.136 22.714 8.21L256 269.478 51.58 115.25c6.249-5.075 14.014-8.203 22.715-8.21zM38.042 368.716V143.284c.016-5.826 1.486-11.205 3.894-16.05l141.813 129.998L41.55 384.044c-2.185-4.651-3.492-9.792-3.508-15.328zm399.663 36.244H74.295c-8.204-.007-15.581-2.771-21.637-7.319l150.618-121.825 22.818 21.711c16.911 15.529 42.902 15.529 59.813 0l22.818-21.711 150.61 121.825c-6.056 4.548-13.434 7.312-21.63 7.319zm36.253-36.244c-.016 5.535-1.322 10.677-3.508 15.328L328.251 257.233l141.805-129.998c2.415 4.844 3.886 10.217 3.901 16.05v225.431z"/></g></svg>